{
copyright = "\U00A9 2015 Nathan Sharfi";
customParameters = (
{
name = license;
value = "Apache License, version 2.0";
},
{
name = licenseURL;
value = "http://www.apache.org/licenses/LICENSE-2.0.html";
}
);
date = "2013-06-06 23:41:20 +0000";
designer = "Nathan Sharfi";
designerURL = "https://www.frogorbits.com/";
familyName = "Abbots Morton Experiment";
featurePrefixes = (
{
code = "languagesystem DFLT dflt;\012languagesystem Quik dflt;\012";
name = Languagesystems;
},
{
code = "";
name = Everything;
}
);
fontMaster = (
{
ascender = 1000;
capHeight = 1000;
descender = "-500";
guideLines = (
{
position = "{149, 535}";
},
{
position = "{25, -450}";
},
{
position = "{97, 950}";
},
{
position = "{69, -35}";
},
{
position = "{25, 900}";
},
{
position = "{26, -400}";
}
);
horizontalStems = (
35
);
id = "0D4C6578-C4F3-4653-B13A-F1323A6E6F4B";
userData = {
GSCornerRadius = 200;
GSOffsetHorizontal = 35;
GSOffsetMakeStroke = 1;
GSOffsetVertical = 35;
};
verticalStems = (
35
);
weightValue = 40;
xHeight = 500;
}
);
glyphs = (
{
glyphname = "day_utter-qs";
lastChange = "2013-07-04 03:29:21 +0000";
layers = (
{
layerId = "0D4C6578-C4F3-4653-B13A-F1323A6E6F4B";
name = Regular;
paths = (
{
closed = 1;
nodes = (
"110 -411 LINE",
"40 -411 LINE"
);
},
{
closed = 1;
nodes = (
"110 -411 LINE",
"292 -4 LINE SMOOTH",
"402 242 OFFCURVE",
"571 465 OFFCURVE",
"801 465 CURVE",
"801 535 LINE",
"544 535 OFFCURVE",
"372 338 OFFCURVE",
"255 92 CURVE SMOOTH",
"110 -214 LINE",
"110 535 LINE",
"40 535 LINE",
"40 -411 LINE"
);
}
);
width = 841;
}
);
leftKerningGroup = day;
leftMetricsKey = "day-qs";
rightKerningGroup = utter.2s;
rightMetricsKey = "utter-qs";
},
{
color = 6;
glyphname = "ah-qs";
lastChange = "2013-07-14 23:46:40 +0000";
layers = (
{
layerId = "0D4C6578-C4F3-4653-B13A-F1323A6E6F4B";
name = Regular;
paths = (
{
closed = 1;
nodes = (
"400 535 OFFCURVE",
"240 532 OFFCURVE",
"240 250 CURVE",
"240 34 OFFCURVE",
"150 35 OFFCURVE",
"25 35 CURVE",
"25 -35 LINE",
"150 -35 OFFCURVE",
"310 -38 OFFCURVE",
"310 250 CURVE",
"310 464 OFFCURVE",
"400 465 OFFCURVE",
"525 465 CURVE",
"525 535 LINE"
);
}
);
width = 550;
}
);
unicode = E676;
},
{
glyphname = "at-qs";
lastChange = "2013-07-04 02:03:29 +0000";
layers = (
{
layerId = "0D4C6578-C4F3-4653-B13A-F1323A6E6F4B";
name = Regular;
paths = (
{
closed = 1;
nodes = (
"295 -35 OFFCURVE",
"560 268 OFFCURVE",
"560 535 CURVE",
"490 535 LINE",
"490 302 OFFCURVE",
"255 35 OFFCURVE",
"25 35 CURVE",
"25 -35 LINE"
);
}
);
width = 600;
}
);
leftMetricsKey = "=ah-qs";
unicode = E674;
},
{
color = 6;
glyphname = "awe-qs";
lastChange = "2013-07-14 23:46:40 +0000";
layers = (
{
layerId = "0D4C6578-C4F3-4653-B13A-F1323A6E6F4B";
name = Regular;
paths = (
{
closed = 1;
nodes = (
"400 35 OFFCURVE",
"310 35 OFFCURVE",
"310 250 CURVE",
"310 535 OFFCURVE",
"150 535 OFFCURVE",
"25 535 CURVE",
"25 465 LINE",
"150 465 OFFCURVE",
"240 465 OFFCURVE",
"240 250 CURVE",
"240 -35 OFFCURVE",
"400 -35 OFFCURVE",
"525 -35 CURVE",
"525 35 LINE"
);
}
);
width = 550;
}
);
leftKerningGroup = removestandard;
leftMetricsKey = "=ah-qs";
rightKerningGroup = removestandard;
rightMetricsKey = "=ah-qs";
unicode = E677;
},
{
glyphname = "awe-qs.2b";
lastChange = "2013-07-07 09:34:34 +0000";
layers = (
{
components = (
{
name = "awe-qs";
transform = "{1, 0, 0, 1, 0, 0}";
}
);
layerId = "0D4C6578-C4F3-4653-B13A-F1323A6E6F4B";
name = Regular;
paths = (
{
closed = 1;
nodes = (
"550 -35 LINE",
"550 35 LINE",
"510 35 LINE",
"510 -35 LINE"
);
}
);
width = 550;
}
);
},
{
glyphname = "awe-qs.s2";
lastChange = "2013-07-07 09:34:16 +0000";
layers = (
{
components = (
{
name = "awe-qs";
transform = "{1, 0, 0, 1, 0, 0}";
}
);
layerId = "0D4C6578-C4F3-4653-B13A-F1323A6E6F4B";
name = Regular;
paths = (
{
closed = 1;
nodes = (
"40 465 LINE",
"40 535 LINE",
"0 535 LINE",
"0 465 LINE"
);
}
);
width = 550;
}
);
},
{
glyphname = "awe-qs.s2b";
lastChange = "2013-07-07 11:24:55 +0000";
layers = (
{
components = (
{
name = "awe-qs.s2";
transform = "{1, 0, 0, 1, 0, 0}";
}
);
layerId = "0D4C6578-C4F3-4653-B13A-F1323A6E6F4B";
name = Regular;
paths = (
{
closed = 1;
nodes = (
"550 -35 LINE",
"550 35 LINE",
"524 35 LINE",
"524 -35 LINE"
);
}
);
width = 550;
}
);
},
{
color = 6;
glyphname = "bay-qs";
lastChange = "2013-08-01 00:03:19 +0000";
layers = (
{
background = {
paths = (
{
closed = 1;
nodes = (
"329 0 LINE",
"329 -14 OFFCURVE",
"329 -31 OFFCURVE",
"329 -49 CURVE",
"329 -122 OFFCURVE",
"320 -285 OFFCURVE",
"188 -285 CURVE",
"137 -285 OFFCURVE",
"110 -231 OFFCURVE",
"110 -165 CURVE",
"110 -95 OFFCURVE",
"140 -35 OFFCURVE",
"188 -35 CURVE",
"385 -35 LINE",
"385 35 LINE",
"188 35 LINE",
"88 35 OFFCURVE",
"40 -71 OFFCURVE",
"40 -165 CURVE",
"40 -255 OFFCURVE",
"85 -355 OFFCURVE",
"188 -355 CURVE",
"388 -355 OFFCURVE",
"399 -126 OFFCURVE",
"399 -49 CURVE",
"399 -31 OFFCURVE",
"399 -14 OFFCURVE",
"399 0 CURVE",
"399 535 LINE",
"329 535 LINE"
);
}
);
};
layerId = "0D4C6578-C4F3-4653-B13A-F1323A6E6F4B";
name = Regular;
paths = (
{
closed = 1;
nodes = (
"146 35 OFFCURVE",
"40 -104 OFFCURVE",
"40 -223 CURVE",
"40 -368 OFFCURVE",
"243 -457 OFFCURVE",
"330 -430 CURVE",
"330 536 LINE",
"260 536 LINE",
"260 -361 LINE",
"192 -345 OFFCURVE",
"110 -289 OFFCURVE",
"110 -223 CURVE",
"110 -136 OFFCURVE",
"188 -35 OFFCURVE",
"300 -37 CURVE",
"302 33 LINE"
);
}
);
width = 370;
}
);
leftKerningGroup = deepbulge;
rightMetricsKey = "=it-qs";
unicode = E651;
},
{
color = 6;
glyphname = "cheer-qs";
lastChange = "2013-07-14 23:46:40 +0000";
layers = (
{
layerId = "0D4C6578-C4F3-4653-B13A-F1323A6E6F4B";
name = Regular;
paths = (
{
closed = 1;
nodes = (
"491.333 35 OFFCURVE",
"73.8424 35 OFFCURVE",
"457.601 879.018 CURVE",
"52.036 526.413 LINE",
"97.964 473.587 LINE",
"287.851 638.678 LINE",
"72.1416 -33 OFFCURVE",
"505.983 -35 OFFCURVE",
"606 -35 CURVE",
"606 35 LINE"
);
}
);
width = 681;
}
);
unicode = E65E;
},
{
color = 6;
glyphname = "day-qs";
lastChange = "2013-07-14 23:46:40 +0000";
layers = (
{
layerId = "0D4C6578-C4F3-4653-B13A-F1323A6E6F4B";
name = Regular;
paths = (
{
closed = 1;
nodes = (
"110 -278 LINE",
"110 535 LINE",
"40 535 LINE",
"40 -522 LINE",
"354.68 -19 LINE",
"295.32 18.55 LINE"
);
}
);
width = 400;
}
);
leftKerningGroup = flatthin;
unicode = E653;
},
{
color = 6;
glyphname = "eat-qs";
lastChange = "2013-12-08 23:12:07 +0000";
layers = (
{
layerId = "0D4C6578-C4F3-4653-B13A-F1323A6E6F4B";
name = Regular;
paths = (
{
closed = 1;
nodes = (
"361.296 658.649 LINE",
"43.1827 -35 LINE",
"106.817 -65 LINE",
"294.704 345.351 LINE",
"299 -35 LINE",
"369 -35 LINE"
);
}
);
width = 419;
}
);
leftKerningGroup = removethin;
unicode = E671;
},
{
color = 6;
glyphname = "eight-qs";
lastChange = "2013-07-14 23:46:40 +0000";
layers = (
{
layerId = "0D4C6578-C4F3-4653-B13A-F1323A6E6F4B";
name = Regular;
paths = (
{
closed = 1;
nodes = (
"546 35 OFFCURVE",
"335 269 OFFCURVE",
"335 450 CURVE",
"335 482 OFFCURVE",
"368 515 OFFCURVE",
"400 515 CURVE",
"432 515 OFFCURVE",
"465 482 OFFCURVE",
"465 450 CURVE",
"465 418 OFFCURVE",
"432 385 OFFCURVE",
"400 385 CURVE",
"165 385 OFFCURVE",
"247 535 OFFCURVE",
"25 535 CURVE",
"25 465 LINE",
"139 465 OFFCURVE",
"206 315 OFFCURVE",
"400 315 CURVE",
"469 315 OFFCURVE",
"535 381 OFFCURVE",
"535 450 CURVE",
"535 519 OFFCURVE",
"469 585 OFFCURVE",
"400 585 CURVE",
"331 585 OFFCURVE",
"265 519 OFFCURVE",
"265 450 CURVE",
"265 231 OFFCURVE",
"503 -35 OFFCURVE",
"625 -35 CURVE",
"625 35 LINE"
);
}
);
width = 650;
}
);
leftKerningGroup = removestandard;
leftMetricsKey = "=ah-qs";
rightKerningGroup = removestandard;
rightMetricsKey = "=ah-qs";
unicode = E673;
},
{
color = 6;
glyphname = "et-qs";
lastChange = "2013-07-14 23:46:40 +0000";
layers = (
{
layerId = "0D4C6578-C4F3-4653-B13A-F1323A6E6F4B";
name = Regular;
paths = (
{
closed = 1;
nodes = (
"297.731 35 OFFCURVE",
"110 300 OFFCURVE",
"110 535 CURVE",
"40 535 LINE",
"40 270 OFFCURVE",
"252.254 -35 OFFCURVE",
"525 -35 CURVE",
"525 35 LINE"
);
}
);
width = 565;
}
);
unicode = E672;
},
{
glyphname = "et-qs.2b";
lastChange = "2013-07-07 09:46:18 +0000";
layers = (
{
components = (
{
name = "et-qs";
transform = "{1, 0, 0, 1, 0, 0}";
}
);
layerId = "0D4C6578-C4F3-4653-B13A-F1323A6E6F4B";
name = Regular;
paths = (
{
closed = 1;
nodes = (
"524 35 LINE",
"524 -35 LINE",
"565 -35 LINE",
"565 35 LINE"
);
}
);
width = 565;
}
);
},
{
color = 6;
glyphname = "exam-qs";
lastChange = "2013-07-14 23:46:40 +0000";
layers = (
{
layerId = "0D4C6578-C4F3-4653-B13A-F1323A6E6F4B";
name = Regular;
paths = (
{
closed = 1;
nodes = (
"493.695 -416 LINE",
"556.305 -384 LINE",
"106.305 515.652 LINE",
"43.695 484.348 LINE"
);
},
{
closed = 1;
nodes = (
"43.695 15.6525 LINE",
"106.305 -16 LINE",
"356.305 484.348 LINE",
"293.695 515.652 LINE"
);
}
);
width = 600;
}
);
unicode = E66C;
},
{
color = 6;
glyphname = "excite-qs";
lastChange = "2013-07-14 23:46:40 +0000";
layers = (
{
layerId = "0D4C6578-C4F3-4653-B13A-F1323A6E6F4B";
name = Regular;
paths = (
{
closed = 1;
nodes = (
"106.305 915.652 LINE",
"43.695 884.348 LINE",
"493.695 -16 LINE",
"556.305 15.6525 LINE"
);
},
{
closed = 1;
nodes = (
"556.305 484.348 LINE",
"493.695 515.652 LINE",
"243.695 15.6525 LINE",
"306.305 -16 LINE"
);
}
);
width = 600;
}
);
unicode = E66B;
},
{
color = 6;
glyphname = "fee-qs";
lastChange = "2013-07-14 23:46:40 +0000";
layers = (
{
layerId = "0D4C6578-C4F3-4653-B13A-F1323A6E6F4B";
name = Regular;
paths = (
{
closed = 1;
nodes = (
"327.555 865 OFFCURVE",
"376.252 35 OFFCURVE",
"240 35 CURVE",
"-4 35 OFFCURVE",
"147 465 OFFCURVE",
"324 465 CURVE",
"324 535 LINE",
"75 535 OFFCURVE",
"-124 -35 OFFCURVE",
"240 -35 CURVE",
"474.395 -35 OFFCURVE",
"417.369 935 OFFCURVE",
"240 935 CURVE",
"240 865 LINE"
);
}
);
width = 435;
}
);
unicode = E658;
},
{
color = 6;
glyphname = "foot-qs";
lastChange = "2013-07-14 23:46:40 +0000";
layers = (
{
layerId = "0D4C6578-C4F3-4653-B13A-F1323A6E6F4B";
name = Regular;
paths = (
{
closed = 1;
nodes = (
"395 -139 OFFCURVE",
"110 -139 OFFCURVE",
"110 535 CURVE",
"40 535 LINE",
"40 -233 OFFCURVE",
"465 -233 OFFCURVE",
"465 535 CURVE",
"395 535 LINE"
);
}
);
width = 505;
}
);
unicode = E67D;
},
{
color = 6;
glyphname = "gay-qs";
lastChange = "2013-07-14 23:46:40 +0000";
layers = (
{
layerId = "0D4C6578-C4F3-4653-B13A-F1323A6E6F4B";
name = Regular;
paths = (
{
closed = 1;
nodes = (
"63.9041 34.5709 OFFCURVE",
"-83 -435 OFFCURVE",
"158 -435 CURVE",
"367.086 -435 OFFCURVE",
"443 -231 OFFCURVE",
"443 -166 CURVE",
"443 115.661 OFFCURVE",
"243 138.048 OFFCURVE",
"243 296 CURVE",
"243 466 OFFCURVE",
"404 466 OFFCURVE",
"458 466 CURVE",
"458 536 LINE",
"404 536 OFFCURVE",
"173 536 OFFCURVE",
"173 296 CURVE",
"173 106.062 OFFCURVE",
"373 71.7962 OFFCURVE",
"373 -166 CURVE",
"373 -210 OFFCURVE",
"310.934 -365 OFFCURVE",
"158 -365 CURVE",
"41.8067 -365 OFFCURVE",
"145.397 -35 OFFCURVE",
"383.376 -32 CURVE",
"382.624 37.998 LINE"
);
}
);
width = 508;
}
);
unicode = E655;
},
{
color = 6;
glyphname = "he-qs";
lastChange = "2013-12-08 23:23:15 +0000";
layers = (
{
layerId = "0D4C6578-C4F3-4653-B13A-F1323A6E6F4B";
name = Regular;
paths = (
{
closed = 1;
nodes = (
"120 786 LINE",
"120 872 OFFCURVE",
"180 909 OFFCURVE",
"371 866 CURVE",
"387 934 LINE",
"155 987 OFFCURVE",
"50 926 OFFCURVE",
"50 786 CURVE",
"50 -35 LINE",
"120 -35 LINE"
);
}
);
width = 172;
}
);
leftKerningGroup = flatthin;
rightKerningGroup = overhangyskinny;
unicode = E662;
},
{
glyphname = "he-qs.half";
layers = (
{
layerId = "0D4C6578-C4F3-4653-B13A-F1323A6E6F4B";
name = Regular;
paths = (
{
closed = 1;
nodes = (
"109.999 786.293 LINE",
"110 872.145 OFFCURVE",
"170.459 909.067 OFFCURVE",
"361.271 865.864 CURVE",
"376.729 934.136 LINE",
"145.345 986.525 OFFCURVE",
"40 926.158 OFFCURVE",
"40 786 CURVE",
"40 500 LINE",
"110 500 LINE"
);
}
);
width = 162;
}
);
leftKerningGroup = flatthin;
rightKerningGroup = overhangyskinny;
},
{
color = 6;
glyphname = "i-qs";
lastChange = "2013-07-14 23:46:40 +0000";
layers = (
{
layerId = "0D4C6578-C4F3-4653-B13A-F1323A6E6F4B";
name = Regular;
paths = (
{
closed = 1;
nodes = (
"104 35 OFFCURVE",
"315 269 OFFCURVE",
"315 450 CURVE",
"315 482 OFFCURVE",
"282 515 OFFCURVE",
"250 515 CURVE",
"218 515 OFFCURVE",
"185 482 OFFCURVE",
"185 450 CURVE",
"185 418 OFFCURVE",
"218 385 OFFCURVE",
"250 385 CURVE",
"485 385 OFFCURVE",
"403 535 OFFCURVE",
"625 535 CURVE",
"625 465 LINE",
"511 465 OFFCURVE",
"444 315 OFFCURVE",
"250 315 CURVE",
"181 315 OFFCURVE",
"115 381 OFFCURVE",
"115 450 CURVE",
"115 519 OFFCURVE",
"181 585 OFFCURVE",
"250 585 CURVE",
"319 585 OFFCURVE",
"385 519 OFFCURVE",
"385 450 CURVE",
"385 231 OFFCURVE",
"147 -35 OFFCURVE",
"25 -35 CURVE",
"25 35 LINE"
);
}
);
width = 650;
}
);
leftKerningGroup = removeextended;
rightKerningGroup = removethin;
unicode = E675;
},
{
color = 6;
glyphname = "it-qs";
lastChange = "2013-12-08 23:20:56 +0000";
layers = (
{
layerId = "0D4C6578-C4F3-4653-B13A-F1323A6E6F4B";
name = Regular;
paths = (
{
closed = 1;
nodes = (
"120 535 LINE",
"50 535 LINE",
"50 -35 LINE",
"120 -35 LINE"
);
}
);
width = 170;
}
);
unicode = E670;
},
{
glyphname = "it-qs.2b";
lastChange = "2013-07-04 07:54:42 +0000";
layers = (
{
components = (
{
name = "it-qs";
transform = "{1, 0, 0, 1, 0, 0}";
}
);
layerId = "0D4C6578-C4F3-4653-B13A-F1323A6E6F4B";
name = Regular;
paths = (
{
closed = 1;
nodes = (
"150 -35 LINE",
"150 35 LINE",
"110 35 LINE",
"110 -35 LINE"
);
}
);
width = 150;
}
);
},
{
glyphname = "it-qs.2s";
lastChange = "2013-07-03 20:42:49 +0000";
layers = (
{
components = (
{
name = "it-qs";
transform = "{1, 0, 0, 1, 0, 0}";
}
);
layerId = "0D4C6578-C4F3-4653-B13A-F1323A6E6F4B";
name = Regular;
paths = (
{
closed = 1;
nodes = (
"150 465 LINE",
"150 535 LINE",
"110 535 LINE",
"110 465 LINE"
);
}
);
width = 150;
}
);
},
{
glyphname = "it-qs.b2";
lastChange = "2013-07-07 11:19:51 +0000";
layers = (
{
components = (
{
name = "it-qs";
transform = "{1, 0, 0, 1, 0, 0}";
}
);
layerId = "0D4C6578-C4F3-4653-B13A-F1323A6E6F4B";
name = Regular;
paths = (
{
closed = 1;
nodes = (
"40 -35 LINE",
"40 35 LINE",
"0 35 LINE",
"0 -35 LINE"
);
}
);
width = 150;
}
);
},
{
glyphname = "it-qs.b2s";
lastChange = "2013-07-07 11:20:10 +0000";
layers = (
{
components = (
{
name = "it-qs.b2";
transform = "{1, 0, 0, 1, 0, 0}";
}
);
layerId = "0D4C6578-C4F3-4653-B13A-F1323A6E6F4B";
name = Regular;
paths = (
{
closed = 1;
nodes = (
"150 465 LINE",
"150 535 LINE",
"110 535 LINE",
"110 465 LINE"
);
}
);
width = 150;
}
);
},
{
glyphname = "it-qs.s2";
lastChange = "2013-07-07 07:49:28 +0000";
layers = (
{
components = (
{
name = "it-qs";
transform = "{1, 0, 0, 1, 0, 0}";
}
);
layerId = "0D4C6578-C4F3-4653-B13A-F1323A6E6F4B";
name = Regular;
paths = (
{
closed = 1;
nodes = (
"40 465 LINE",
"40 535 LINE",
"0 535 LINE",
"0 465 LINE"
);
}
);
width = 150;
}
);
},
{
glyphname = "it-qs.s2b";
lastChange = "2013-07-07 11:23:19 +0000";
layers = (
{
components = (
{
name = "it-qs.2b";
transform = "{1, 0, 0, 1, 0, 0}";
}
);
layerId = "0D4C6578-C4F3-4653-B13A-F1323A6E6F4B";
name = Regular;
paths = (
{
closed = 1;
nodes = (
"40 465 LINE",
"40 535 LINE",
"0 535 LINE",
"0 465 LINE"
);
}
);
width = 150;
}
);
},
{
color = 6;
glyphname = "jay-qs";
lastChange = "2013-07-14 23:46:40 +0000";
layers = (
{
layerId = "0D4C6578-C4F3-4653-B13A-F1323A6E6F4B";
name = Regular;
paths = (
{
closed = 1;
nodes = (
"140 465 OFFCURVE",
"557 465 OFFCURVE",
"173 -379 CURVE",
"579 -26 LINE",
"533 26 LINE",
"343 -139 LINE",
"559 533 OFFCURVE",
"125 535 OFFCURVE",
"25 535 CURVE",
"25 465 LINE"
);
}
);
width = 631;
}
);
leftMetricsKey = "=ah-qs";
unicode = E65F;
},
{
color = 6;
glyphname = "key-qs";
lastChange = "2013-07-14 23:46:40 +0000";
layers = (
{
layerId = "0D4C6578-C4F3-4653-B13A-F1323A6E6F4B";
name = Regular;
paths = (
{
closed = 1;
nodes = (
"201.285 35 OFFCURVE",
"-42 244.727 OFFCURVE",
"297.452 490.977 CURVE",
"307.84 643.43 OFFCURVE",
"169.772 787.688 OFFCURVE",
"106.587 920.076 CURVE",
"43.4132 889.924 LINE",
"105.686 759.448 OFFCURVE",
"216.088 638.904 OFFCURVE",
"227.115 525.48 CURVE",
"-149 228 OFFCURVE",
"168.915 -35 OFFCURVE",
"385 -35 CURVE",
"385 35 LINE"
);
}
);
width = 410;
}
);
rightKerningGroup = removestandard;
rightMetricsKey = "=ah-qs";
unicode = E654;
},
{
color = 6;
glyphname = "llan-qs";
lastChange = "2013-07-14 23:46:40 +0000";
layers = (
{
layerId = "0D4C6578-C4F3-4653-B13A-F1323A6E6F4B";
name = Regular;
paths = (
{
closed = 1;
nodes = (
"77 465 OFFCURVE",
"397 261 OFFCURVE",
"428 261 CURVE",
"428 331 LINE",
"160 331 OFFCURVE",
"25 244 OFFCURVE",
"25 154 CURVE",
"25 41 OFFCURVE",
"199 -35 OFFCURVE",
"513 -35 CURVE",
"513 35 LINE",
"231 35 OFFCURVE",
"95 102 OFFCURVE",
"95 154 CURVE",
"95 191 OFFCURVE",
"197 261 OFFCURVE",
"428 261 CURVE",
"428 331 LINE",
"410 331 OFFCURVE",
"108 535 OFFCURVE",
"28 535 CURVE",
"28 465 LINE"
);
}
);
width = 538;
}
);
leftKerningGroup = removestandard;
leftMetricsKey = "=ah-qs";
rightKerningGroup = removestandard;
rightMetricsKey = "=ah-qs";
unicode = E66A;
},
{
color = 6;
glyphname = "loch-qs";
lastChange = "2013-07-14 23:46:40 +0000";
layers = (
{
layerId = "0D4C6578-C4F3-4653-B13A-F1323A6E6F4B";
name = Regular;
paths = (
{
closed = 1;
nodes = (
"510 417 OFFCURVE",
"477.73 535 OFFCURVE",
"275 535 CURVE",
"78.3316 535 OFFCURVE",
"40 395.729 OFFCURVE",
"40 250 CURVE",
"40 116.847 OFFCURVE",
"81.574 -53 OFFCURVE",
"310 -33 CURVE",
"310 900 LINE",
"240 900 LINE",
"240 37.3303 LINE",
"130.53 52.9028 OFFCURVE",
"110 144.474 OFFCURVE",
"110 250 CURVE",
"110 384.242 OFFCURVE",
"133.696 465 OFFCURVE",
"275 465 CURVE",
"412.388 465 OFFCURVE",
"440 395 OFFCURVE",
"440 -35 CURVE",
"510 -35 LINE"
);
}
);
width = 550;
}
);
unicode = E669;
},
{
color = 6;
glyphname = "low-qs";
lastChange = "2013-07-14 23:46:40 +0000";
layers = (
{
layerId = "0D4C6578-C4F3-4653-B13A-F1323A6E6F4B";
name = Regular;
paths = (
{
closed = 1;
nodes = (
"430 535 OFFCURVE",
"128 331 OFFCURVE",
"110 331 CURVE",
"110 261 LINE",
"341 261 OFFCURVE",
"443 191 OFFCURVE",
"443 154 CURVE",
"443 102 OFFCURVE",
"307 35 OFFCURVE",
"25 35 CURVE",
"25 -35 LINE",
"339 -35 OFFCURVE",
"513 41 OFFCURVE",
"513 154 CURVE",
"513 244 OFFCURVE",
"378 331 OFFCURVE",
"110 331 CURVE",
"110 261 LINE",
"141 261 OFFCURVE",
"461 465 OFFCURVE",
"510 465 CURVE",
"510 535 LINE"
);
}
);
width = 585;
}
);
leftKerningGroup = removestandard;
leftMetricsKey = "=ah-qs";
rightKerningGroup = removestandard;
unicode = E667;
},
{
color = 6;
glyphname = "may-qs";
lastChange = "2013-07-14 23:46:40 +0000";
layers = (
{
layerId = "0D4C6578-C4F3-4653-B13A-F1323A6E6F4B";
name = Regular;
paths = (
{
closed = 1;
nodes = (
"256.233 45.9154 OFFCURVE",
"336.202 60.1961 OFFCURVE",
"375.169 -3 CURVE",
"417.528 -73 OFFCURVE",
"373.69 -365 OFFCURVE",
"201 -365 CURVE",
"198.943 -365 OFFCURVE",
"110 -315 OFFCURVE",
"110 2 CURVE",
"110 116.326 OFFCURVE",
"207.751 465 OFFCURVE",
"366 465 CURVE",
"366 535 LINE",
"146.23 535 OFFCURVE",
"40 133.706 OFFCURVE",
"40 2 CURVE",
"40 -385 OFFCURVE",
"166.851 -435 OFFCURVE",
"201 -435 CURVE",
"446.406 -435 OFFCURVE",
"496.575 -69 OFFCURVE",
"434.951 33.1097 CURVE",
"365.781 145.833 OFFCURVE",
"239.797 116.1 OFFCURVE",
"112 51 CURVE",
"95 -35 LINE"
);
}
);
width = 499;
}
);
unicode = E665;
},
{
glyphname = "may-qs.2b";
lastChange = "2013-07-04 07:46:26 +0000";
layers = (
{
layerId = "0D4C6578-C4F3-4653-B13A-F1323A6E6F4B";
name = Regular;
paths = (
{
closed = 1;
nodes = (
"268 -105 OFFCURVE",
"317 -150 OFFCURVE",
"356 -213 CURVE",
"399 -283 OFFCURVE",
"373.69 -365 OFFCURVE",
"201 -365 CURVE",
"198.943 -365 OFFCURVE",
"110 -315 OFFCURVE",
"110 2 CURVE",
"110 116.326 OFFCURVE",
"207.751 465 OFFCURVE",
"366 465 CURVE",
"366 535 LINE",
"146.23 535 OFFCURVE",
"40 133.706 OFFCURVE",
"40 2 CURVE",
"40 -385 OFFCURVE",
"166.851 -435 OFFCURVE",
"201 -435 CURVE",
"446.406 -435 OFFCURVE",
"478 -279 OFFCURVE",
"416 -177 CURVE",
"347 -64 OFFCURVE",
"246 0 OFFCURVE",
"147 33 CURVE",
"130 -53 LINE"
);
},
{
closed = 1;
nodes = (
"492 -30 LINE",
"492 40 LINE",
"79 40 LINE",
"79 -30 LINE"
);
}
);
width = 499;
}
);
},
{
glyphname = "may-qs.2s";
lastChange = "2013-07-04 06:50:43 +0000";
layers = (
{
components = (
{
name = "may-qs";
transform = "{1, 0, 0, 1, 0, 0}";
}
);
layerId = "0D4C6578-C4F3-4653-B13A-F1323A6E6F4B";
name = Regular;
paths = (
{
closed = 1;
nodes = (
"499 465 LINE",
"499 535 LINE",
"366 535 LINE",
"366 465 LINE"
);
}
);
width = 499;
}
);
},
{
glyphname = "may-qs.b2s";
lastChange = "2013-07-04 08:15:18 +0000";
layers = (
{
components = (
{
name = "may-qs.2s";
transform = "{1, 0, 0, 1, 0, 0}";
}
);
layerId = "0D4C6578-C4F3-4653-B13A-F1323A6E6F4B";
name = Regular;
paths = (
{
closed = 1;
nodes = (
"0 35 LINE",
"0 -35 LINE",
"41 -35 LINE",
"41 35 LINE"
);
}
);
width = 499;
}
);
},
{
color = 6;
glyphname = "no-qs";
lastChange = "2013-07-14 23:46:40 +0000";
layers = (
{
layerId = "0D4C6578-C4F3-4653-B13A-F1323A6E6F4B";
name = Regular;
paths = (
{
closed = 1;
nodes = (
"364.528 535 OFFCURVE",
"137 435.734 OFFCURVE",
"137 250 CURVE",
"137 -117 OFFCURVE",
"515.295 -117 OFFCURVE",
"512.999 250.219 CURVE",
"511.833 435.706 OFFCURVE",
"286.539 535 OFFCURVE",
"75 535 CURVE",
"75 465 LINE",
"263.481 465 OFFCURVE",
"442.167 382.317 OFFCURVE",
"443 249.78 CURVE",
"444.707 -23 OFFCURVE",
"207 -23 OFFCURVE",
"207 250 CURVE",
"207 382.289 OFFCURVE",
"387.452 465 OFFCURVE",
"576 465 CURVE",
"576 535 LINE"
);
}
);
width = 651;
}
);
leftKerningGroup = removeextended;
rightKerningGroup = removeextended;
unicode = E666;
},
{
glyphname = "no-qs.2s";
lastChange = "2013-07-03 22:36:44 +0000";
layers = (
{
components = (
{
name = "no-qs";
transform = "{1, 0, 0, 1, 0, 0}";
}
);
layerId = "0D4C6578-C4F3-4653-B13A-F1323A6E6F4B";
name = Regular;
paths = (
{
closed = 1;
nodes = (
"576 535 LINE",
"576 465 LINE",
"651 465 LINE",
"651 535 LINE"
);
}
);
width = 651;
}
);
},
{
glyphname = "no-qs.alt";
lastChange = "2013-06-29 19:18:22 +0000";
layers = (
{
layerId = "0D4C6578-C4F3-4653-B13A-F1323A6E6F4B";
name = Regular;
paths = (
{
closed = 1;
nodes = (
"387.452 35 OFFCURVE",
"207 117.711 OFFCURVE",
"207 250 CURVE",
"207 523.195 OFFCURVE",
"444.707 523.195 OFFCURVE",
"443 250.219 CURVE",
"442.167 117.683 OFFCURVE",
"263.481 35 OFFCURVE",
"75 35 CURVE",
"75 -35 LINE",
"286.539 -35 OFFCURVE",
"511.833 64.2938 OFFCURVE",
"512.999 249.78 CURVE",
"515.295 617.17 OFFCURVE",
"137 617.17 OFFCURVE",
"137 250 CURVE",
"137 64.2664 OFFCURVE",
"364.528 -35 OFFCURVE",
"576 -35 CURVE",
"576 35 LINE"
);
}
);
width = 651;
}
);
leftKerningGroup = removeextended;
rightKerningGroup = removeextended;
},
{
glyphname = "no-qs.alt.2b";
lastChange = "2013-07-14 09:05:42 +0000";
layers = (
{
components = (
{
name = "no-qs.alt";
transform = "{1, 0, 0, 1, 0, 0}";
}
);
layerId = "0D4C6578-C4F3-4653-B13A-F1323A6E6F4B";
name = Regular;
paths = (
{
closed = 1;
nodes = (
"576 35 LINE",
"576 -35 LINE",
"651 -35 LINE",
"651 35 LINE"
);
}
);
width = 651;
}
);
},
{
glyphname = "no-qs.alt.b2";
lastChange = "2013-07-14 09:05:51 +0000";
layers = (
{
components = (
{
name = "no-qs.alt";
transform = "{1, 0, 0, 1, 0, 0}";
}
);
layerId = "0D4C6578-C4F3-4653-B13A-F1323A6E6F4B";
name = Regular;
paths = (
{
closed = 1;
nodes = (
"75 -35 LINE",
"75 35 LINE",
"0 35 LINE",
"0 -35 LINE"
);
}
);
width = 651;
}
);
},
{
glyphname = "no-qs.alt.b2b";
lastChange = "2013-07-14 09:05:58 +0000";
layers = (
{
background = {
components = (
{
name = "no-qs.alt";
transform = "{1, 0, 0, 1, 0, 0}";
}
);
};
components = (
{
name = "no-qs.alt.b2";
transform = "{1, 0, 0, 1, 0, 0}";
}
);
layerId = "0D4C6578-C4F3-4653-B13A-F1323A6E6F4B";
name = Regular;
paths = (
{
closed = 1;
nodes = (
"576 35 LINE",
"576 -35 LINE",
"651 -35 LINE",
"651 35 LINE"
);
}
);
width = 651;
}
);
},
{
glyphname = "no-qs.s2";
lastChange = "2013-07-03 22:36:56 +0000";
layers = (
{
components = (
{
name = "no-qs";
transform = "{1, 0, 0, 1, 0, 0}";
}
);
layerId = "0D4C6578-C4F3-4653-B13A-F1323A6E6F4B";
name = Regular;
paths = (
{
closed = 1;
nodes = (
"0 535 LINE",
"0 465 LINE",
"75 465 LINE",
"75 535 LINE"
);
}
);
width = 651;
}
);
},
{
glyphname = "no-qs.s2s";
lastChange = "2013-07-03 22:37:02 +0000";
layers = (
{
components = (
{
name = "no-qs.s2";
transform = "{1, 0, 0, 1, 0, 0}";
}
);
layerId = "0D4C6578-C4F3-4653-B13A-F1323A6E6F4B";
name = Regular;
paths = (
{
closed = 1;
nodes = (
"576 535 LINE",
"576 465 LINE",
"651 465 LINE",
"651 535 LINE"
);
}
);
width = 651;
}
);
leftKerningGroup = removenone;
rightKerningGroup = removenone;
},
{
color = 6;
glyphname = "oolong-qs";
lastChange = "2013-07-14 23:46:40 +0000";
layers = (
{
layerId = "0D4C6578-C4F3-4653-B13A-F1323A6E6F4B";
name = Regular;
paths = (
{
closed = 1;
nodes = (
"403.521 35 OFFCURVE",
"207 510.865 OFFCURVE",
"207 659 CURVE",
"207 932.195 OFFCURVE",
"444.707 932.195 OFFCURVE",
"443 659.219 CURVE",
"442.068 510.908 OFFCURVE",
"247.392 35 OFFCURVE",
"75 35 CURVE",
"75 -35 LINE",
"302.626 -35 OFFCURVE",
"511.932 489.067 OFFCURVE",
"512.999 658.78 CURVE",
"515.295 1026.17 OFFCURVE",
"137 1026.17 OFFCURVE",
"137 659 CURVE",
"137 489.111 OFFCURVE",
"348.461 -35 OFFCURVE",
"576 -35 CURVE",
"576 35 LINE"
);
}
);
width = 651;
}
);
unicode = E664;
},
{
glyphname = "oolong-qs.b2";
lastChange = "2013-06-30 20:59:33 +0000";
layers = (
{
components = (
{
name = "oolong-qs";
transform = "{1, 0, 0, 1, 0, 0}";
}
);
layerId = "0D4C6578-C4F3-4653-B13A-F1323A6E6F4B";
name = Regular;
paths = (
{
closed = 1;
nodes = (
"0 35 LINE",
"0 -35 LINE",
"75 -35 LINE",
"75 35 LINE"
);
}
);
width = 651;
}
);
leftKerningGroup = removenone;
},
{
glyphname = "oolong-qs.b2b";
lastChange = "2013-06-30 20:57:15 +0000";
layers = (
{
components = (
{
name = "oolong-qs.b2";
transform = "{1, 0, 0, 1, 0, 0}";
}
);
layerId = "0D4C6578-C4F3-4653-B13A-F1323A6E6F4B";
name = Regular;
paths = (
{
closed = 1;
nodes = (
"651 -35 LINE",
"651 35 LINE",
"576 35 LINE",
"576 -35 LINE"
);
}
);
width = 651;
}
);
},
{
color = 6;
glyphname = "ooze-qs";
lastChange = "2013-07-14 23:46:40 +0000";
layers = (
{
layerId = "0D4C6578-C4F3-4653-B13A-F1323A6E6F4B";
name = Regular;
paths = (
{
closed = 1;
nodes = (
"465 729 OFFCURVE",
"40 729 OFFCURVE",
"40 -35 CURVE",
"110 -35 LINE",
"110 635 OFFCURVE",
"395 635 OFFCURVE",
"395 -35 CURVE",
"465 -35 LINE"
);
}
);
width = 505;
}
);
leftKerningGroup = removethin;
unicode = E67E;
},
{
color = 6;
glyphname = "out-qs";
lastChange = "2013-07-14 23:46:40 +0000";
layers = (
{
layerId = "0D4C6578-C4F3-4653-B13A-F1323A6E6F4B";
name = Regular;
paths = (
{
closed = 1;
nodes = (
"226.169 535 OFFCURVE",
"65 263.71 OFFCURVE",
"65 0 CURVE",
"135 0 LINE",
"135 236.306 OFFCURVE",
"273.816 465 OFFCURVE",
"500 465 CURVE",
"500 535 LINE"
);
},
{
closed = 1;
nodes = (
"573.784 265 OFFCURVE",
"635 326.216 OFFCURVE",
"635 400 CURVE",
"635 473.784 OFFCURVE",
"573.784 535 OFFCURVE",
"500 535 CURVE",
"426.216 535 OFFCURVE",
"365 473.784 OFFCURVE",
"365 400 CURVE",
"365 326.216 OFFCURVE",
"426.216 265 OFFCURVE",
"500 265 CURVE"
);
},
{
closed = 1;
nodes = (
"463.259 335 OFFCURVE",
"435 363.259 OFFCURVE",
"435 400 CURVE",
"435 436.741 OFFCURVE",
"463.259 465 OFFCURVE",
"500 465 CURVE",
"536.741 465 OFFCURVE",
"565 436.741 OFFCURVE",
"565 400 CURVE",
"565 363.259 OFFCURVE",
"536.741 335 OFFCURVE",
"500 335 CURVE"
);
}
);
width = 700;
}
);
rightMetricsKey = "=ah-qs";
unicode = E67B;
},
{
glyphname = "out-qs.init";
lastChange = "2013-07-03 02:16:20 +0000";
layers = (
{
components = (
{
name = "out-qs";
transform = "{1, 0, 0, 1, -50, 0}";
}
);
layerId = "0D4C6578-C4F3-4653-B13A-F1323A6E6F4B";
name = Regular;
paths = (
{
closed = 1;
nodes = (
"650 465 LINE",
"650 535 LINE",
"450 535 LINE",
"450 465 LINE"
);
}
);
width = 650;
}
);
leftKerningGroup = removestandard;
leftMetricsKey = "=ah-qs";
rightKerningGroup = removenone;
},
{
color = 6;
glyphname = "owe-qs";
lastChange = "2013-07-14 23:46:40 +0000";
layers = (
{
layerId = "0D4C6578-C4F3-4653-B13A-F1323A6E6F4B";
name = Regular;
paths = (
{
closed = 1;
nodes = (
"445.504 465 OFFCURVE",
"541 369.504 OFFCURVE",
"541 250 CURVE",
"541 129.588 OFFCURVE",
"445.595 35 OFFCURVE",
"326 35 CURVE",
"205.405 35 OFFCURVE",
"110 129.588 OFFCURVE",
"110 250 CURVE",
"110 369.504 OFFCURVE",
"205.496 465 OFFCURVE",
"326 465 CURVE",
"326 535 LINE",
"168.476 535 OFFCURVE",
"40 406.524 OFFCURVE",
"40 250 CURVE",
"40 92.3845 OFFCURVE",
"168.568 -35 OFFCURVE",
"326 -35 CURVE",
"482.432 -35 OFFCURVE",
"611 92.3845 OFFCURVE",
"611 250 CURVE",
"611 406.524 OFFCURVE",
"482.524 535 OFFCURVE",
"326 535 CURVE",
"326 465 LINE"
);
}
);
width = 651;
}
);
rightKerningGroup = trailingmiddlebulge;
unicode = E67C;
},
{
color = 6;
glyphname = "ox-qs";
lastChange = "2013-07-14 23:46:40 +0000";
layers = (
{
layerId = "0D4C6578-C4F3-4653-B13A-F1323A6E6F4B";
name = Regular;
paths = (
{
closed = 1;
nodes = (
"255 465 OFFCURVE",
"390 198 OFFCURVE",
"390 -35 CURVE",
"460 -35 LINE",
"460 232 OFFCURVE",
"295 535 OFFCURVE",
"25 535 CURVE",
"25 465 LINE"
);
}
);
width = 500;
}
);
leftKerningGroup = removestandard;
leftMetricsKey = "=ah-qs";
rightKerningGroup = removethin;
unicode = E678;
},
{
glyphname = "ox-qs.s2";
lastChange = "2013-07-10 01:40:23 +0000";
layers = (
{
components = (
{
name = "ox-qs";
transform = "{1, 0, 0, 1, 0, 0}";
}
);
layerId = "0D4C6578-C4F3-4653-B13A-F1323A6E6F4B";
name = Regular;
paths = (
{
closed = 1;
nodes = (
"40 465 LINE",
"40 535 LINE",
"0 535 LINE",
"0 465 LINE"
);
}
);
width = 500;
}
);
},
{
glyphname = "oy-qs";
lastChange = "2013-06-29 16:29:14 +0000";
layers = (
{
layerId = "0D4C6578-C4F3-4653-B13A-F1323A6E6F4B";
name = Regular;
paths = (
{
closed = 1;
nodes = (
"99 465 OFFCURVE",
"171 458 OFFCURVE",
"244 436 CURVE",
"254 434 OFFCURVE",
"269 377 OFFCURVE",
"250 350 CURVE",
"228 318 OFFCURVE",
"190 310 OFFCURVE",
"159 332 CURVE",
"130 352 OFFCURVE",
"122 392 OFFCURVE",
"144 423 CURVE",
"165 453 OFFCURVE",
"203 459 OFFCURVE",
"244 447 CURVE",
"284 434 OFFCURVE",
"486 177 OFFCURVE",
"594 -17 CURVE",
"656 17 LINE",
"543 217 OFFCURVE",
"328 494 OFFCURVE",
"264 514 CURVE",
"201 533 OFFCURVE",
"129 525 OFFCURVE",
"86 463 CURVE",
"44 400 OFFCURVE",
"60 315 OFFCURVE",
"119 274 CURVE",
"180 232 OFFCURVE",
"266 248 OFFCURVE",
"308 310 CURVE",
"352 374 OFFCURVE",
"325 487 OFFCURVE",
"263 504 CURVE",
"185 526 OFFCURVE",
"103 535 OFFCURVE",
"25 535 CURVE",
"25 465 LINE"
);
}
);
width = 700;
}
);
leftMetricsKey = "=ah-qs";
unicode = E679;
},
{
color = 6;
glyphname = "pea-qs";
lastChange = "2013-07-14 23:46:40 +0000";
layers = (
{
layerId = "0D4C6578-C4F3-4653-B13A-F1323A6E6F4B";
name = Regular;
paths = (
{
closed = 1;
nodes = (
"110 934.2 OFFCURVE",
"310 934.334 OFFCURVE",
"310 711 CURVE",
"317 -35 LINE",
"387 -35 LINE",
"379.999 711.322 LINE",
"380 1032.28 OFFCURVE",
"40 1032.18 OFFCURVE",
"40 550 CURVE",
"110 550 LINE"
);
}
);
width = 427;
}
);
unicode = E650;
},
{
glyphname = "pea-qs.half";
lastChange = "2013-06-30 23:45:57 +0000";
layers = (
{
layerId = "0D4C6578-C4F3-4653-B13A-F1323A6E6F4B";
name = Regular;
paths = (
{
closed = 1;
nodes = (
"110 934.2 OFFCURVE",
"310 934.334 OFFCURVE",
"310 711 CURVE",
"317 500 LINE",
"387 500 LINE",
"379.999 711.322 LINE",
"380 1032.28 OFFCURVE",
"40 1032.18 OFFCURVE",
"40 550 CURVE",
"110 550 LINE"
);
}
);
width = 412;
}
);
rightKerningGroup = removestandard;
},
{
color = 6;
glyphname = "roe-qs";
lastChange = "2013-07-14 23:46:40 +0000";
layers = (
{
layerId = "0D4C6578-C4F3-4653-B13A-F1323A6E6F4B";
name = Regular;
paths = (
{
closed = 1;
nodes = (
"200 -35 OFFCURVE",
"400 37 OFFCURVE",
"400 265 CURVE",
"400 494 OFFCURVE",
"193 535 OFFCURVE",
"40 535 CURVE",
"40 465 LINE",
"185 465 OFFCURVE",
"330 434 OFFCURVE",
"330 265 CURVE",
"330 93 OFFCURVE",
"180 35 OFFCURVE",
"40 35 CURVE",
"40 -35 LINE"
);
}
);
width = 440;
}
);
unicode = E668;
},
{
glyphname = "roe-qs.b2";
lastChange = "2013-07-03 20:38:16 +0000";
layers = (
{
components = (
{
name = "roe-qs";
transform = "{1, 0, 0, 1, 40, 0}";
}
);
layerId = "0D4C6578-C4F3-4653-B13A-F1323A6E6F4B";
name = Regular;
paths = (
{
closed = 1;
nodes = (
"0 35 LINE",
"0 -35 LINE",
"80 -35 LINE",
"80 35 LINE"
);
}
);
width = 465;
}
);
leftKerningGroup = removenone;
},
{
glyphname = "roe-qs.s2";
lastChange = "2013-07-04 03:46:13 +0000";
layers = (
{
components = (
{
name = "roe-qs";
transform = "{1, 0, 0, 1, 43, 0}";
}
);
layerId = "0D4C6578-C4F3-4653-B13A-F1323A6E6F4B";
name = Regular;
paths = (
{
closed = 1;
nodes = (
"0 535 LINE",
"0 465 LINE",
"83 465 LINE",
"83 535 LINE"
);
}
);
width = 483;
}
);
leftKerningGroup = roe.s2;
},
{
color = 6;
glyphname = "see-qs";
lastChange = "2013-07-14 23:46:40 +0000";
layers = (
{
layerId = "0D4C6578-C4F3-4653-B13A-F1323A6E6F4B";
name = Regular;
paths = (
{
closed = 1;
nodes = (
"271 936 OFFCURVE",
"40 936 OFFCURVE",
"40 696 CURVE",
"40 506 OFFCURVE",
"240 472 OFFCURVE",
"240 234 CURVE",
"240 190 OFFCURVE",
"178 35 OFFCURVE",
"25 35 CURVE",
"25 -35 LINE",
"234 -35 OFFCURVE",
"310 169 OFFCURVE",
"310 234 CURVE",
"310 516 OFFCURVE",
"110 538 OFFCURVE",
"110 696 CURVE",
"110 866 OFFCURVE",
"271 866 OFFCURVE",
"325 866 CURVE",
"325 936 LINE"
);
}
);
width = 400;
}
);
leftKerningGroup = removestandard;
leftMetricsKey = "=ah-qs";
rightKerningGroup = trailingmiddlebulge;
unicode = E65A;
},
{
color = 6;
glyphname = "she-qs";
lastChange = "2013-07-14 23:46:40 +0000";
layers = (
{
layerId = "0D4C6578-C4F3-4653-B13A-F1323A6E6F4B";
name = Regular;
paths = (
{
closed = 1;
nodes = (
"335.467 16.388 OFFCURVE",
"229.398 -5 OFFCURVE",
"139.742 15.1331 CURVE",
"0 47.1595 OFFCURVE",
"322 856 OFFCURVE",
"343 900 CURVE",
"270 900 LINE",
"243 842 OFFCURVE",
"-110 0.435489 OFFCURVE",
"124.196 -53 CURVE",
"228.602 -77 OFFCURVE",
"348.533 -52 OFFCURVE",
"438 -35 CURVE",
"437.918 34.4674 LINE"
);
}
);
width = 519;
}
);
rightKerningGroup = she;
unicode = E65C;
},
{
color = 6;
glyphname = "tea-qs";
lastChange = "2013-12-08 23:19:25 +0000";
layers = (
{
layerId = "0D4C6578-C4F3-4653-B13A-F1323A6E6F4B";
name = Regular;
paths = (
{
closed = 1;
nodes = (
"120 900 LINE",
"50 900 LINE",
"50 -35 LINE",
"120 -35 LINE"
);
}
);
width = 170;
}
);
leftKerningGroup = flatthin;
rightKerningGroup = removethin;
unicode = E652;
},
{
glyphname = "tea-qs.2b";
lastChange = "2013-07-07 21:28:55 +0000";
layers = (
{
components = (
{
name = "tea-qs";
transform = "{1, 0, 0, 1, 0, 0}";
}
);
layerId = "0D4C6578-C4F3-4653-B13A-F1323A6E6F4B";
name = Regular;
paths = (
{
closed = 1;
nodes = (
"150 -35 LINE",
"150 35 LINE",
"110 35 LINE",
"110 -35 LINE"
);
}
);
width = 150;
}
);
},
{
glyphname = "tea-qs.b2";
lastChange = "2013-07-07 21:29:18 +0000";
layers = (
{
components = (
{
name = "tea-qs";
transform = "{1, 0, 0, 1, 0, 0}";
}
);
layerId = "0D4C6578-C4F3-4653-B13A-F1323A6E6F4B";
name = Regular;
paths = (
{
closed = 1;
nodes = (
"40 -35 LINE",
"40 35 LINE",
"0 35 LINE",
"0 -35 LINE"
);
}
);
width = 150;
}
);
},
{
color = 6;
glyphname = "thaw-qs";
lastChange = "2013-07-14 23:46:40 +0000";
layers = (
{
layerId = "0D4C6578-C4F3-4653-B13A-F1323A6E6F4B";
name = Regular;
paths = (
{
closed = 1;
nodes = (
"214 891 OFFCURVE",
"321 903 OFFCURVE",
"409 875 CURVE",
"546 832 OFFCURVE",
"150 42 OFFCURVE",
"126 0 CURVE",
"205 0 LINE",
"237 56 OFFCURVE",
"659 869 OFFCURVE",
"430 942 CURVE",
"328 974 OFFCURVE",
"206 960 OFFCURVE",
"104 951 CURVE",
"110 881 LINE"
);
}
);
width = 519;
}
);
unicode = E656;
},
{
color = 6;
glyphname = "they-qs";
lastChange = "2013-07-14 23:46:40 +0000";
layers = (
{
layerId = "0D4C6578-C4F3-4653-B13A-F1323A6E6F4B";
name = Regular;
paths = (
{
closed = 1;
nodes = (
"335.467 -384 OFFCURVE",
"229.398 -405 OFFCURVE",
"139.742 -385 CURVE",
"0 -353 OFFCURVE",
"317.299 440.961 OFFCURVE",
"337.779 485.333 CURVE",
"274.221 514.667 LINE",
"247.303 456.344 OFFCURVE",
"-110 -400 OFFCURVE",
"124.196 -453 CURVE",
"228.602 -477 OFFCURVE",
"348.533 -452 OFFCURVE",
"450.082 -434 CURVE",
"437.918 -366 LINE"
);
}
);
width = 357;
}
);
unicode = E657;
},
{
color = 6;
glyphname = "utter-qs";
lastChange = "2013-07-14 23:46:40 +0000";
layers = (
{
layerId = "0D4C6578-C4F3-4653-B13A-F1323A6E6F4B";
name = Regular;
paths = (
{
closed = 1;
nodes = (
"205 535 OFFCURVE",
"40 232 OFFCURVE",
"40 -35 CURVE",
"110 -35 LINE",
"110 198 OFFCURVE",
"245 465 OFFCURVE",
"475 465 CURVE",
"475 535 LINE"
);
}
);
width = 515;
}
);
unicode = E67A;
},
{
glyphname = "utter-qs.2s";
lastChange = "2013-07-07 11:22:35 +0000";
layers = (
{
components = (
{
name = "utter-qs";
transform = "{1, 0, 0, 1, 0, 0}";
}
);
layerId = "0D4C6578-C4F3-4653-B13A-F1323A6E6F4B";
name = Regular;
paths = (
{
closed = 1;
nodes = (
"515 465 LINE",
"515 535 LINE",
"474 535 LINE",
"474 465 LINE"
);
}
);
width = 515;
}
);
rightKerningGroup = utter.2s;
},
{
glyphname = "utter-qs.2sr";
lastChange = "2013-07-04 02:51:16 +0000";
layers = (
{
layerId = "0D4C6578-C4F3-4653-B13A-F1323A6E6F4B";
name = Regular;
paths = (
{
closed = 1;
nodes = (
"405 535 OFFCURVE",
"40 232 OFFCURVE",
"40 -35 CURVE",
"110 -35 LINE",
"110 198 OFFCURVE",
"445 465 OFFCURVE",
"675 465 CURVE",
"675 535 LINE"
);
}
);
width = 715;
}
);
rightKerningGroup = utter.2s;
},
{
glyphname = "utter-qs.alt";
lastChange = "2013-07-03 01:28:38 +0000";
layers = (
{
layerId = "0D4C6578-C4F3-4653-B13A-F1323A6E6F4B";
name = Regular;
paths = (
{
closed = 1;
nodes = (
"26 378 OFFCURVE",
"-133 -35 OFFCURVE",
"471 -35 CURVE",
"471 35 LINE",
"-29 35 OFFCURVE",
"86.0173 337.439 OFFCURVE",
"246 473 CURVE",
"200 527 LINE"
);
}
);
width = 496;
}
);
rightMetricsKey = "=ah-qs";
},
{
glyphname = "utter-qs.b2";
lastChange = "2013-07-07 11:43:28 +0000";
layers = (
{
components = (
{
name = "utter-qs";
transform = "{1, 0, 0, 1, 0, 0}";
}
);
layerId = "0D4C6578-C4F3-4653-B13A-F1323A6E6F4B";
name = Regular;
paths = (
{
closed = 1;
nodes = (
"45 -35 LINE",
"45 35 LINE",
"5 35 LINE",
"5 -35 LINE"
);
}
);
width = 515;
}
);
},
{
glyphname = "utter-qs.b2s";
lastChange = "2013-07-07 21:14:38 +0000";
layers = (
{
components = (
{
name = "utter-qs.2s";
transform = "{1, 0, 0, 1, 0, 0}";
}
);
layerId = "0D4C6578-C4F3-4653-B13A-F1323A6E6F4B";
name = Regular;
paths = (
{
closed = 1;
nodes = (
"45 -35 LINE",
"45 35 LINE",
"5 35 LINE",
"5 -35 LINE"
);
}
);
width = 515;
}
);
},
{
color = 6;
glyphname = "vie-qs";
lastChange = "2013-07-14 23:46:40 +0000";
layers = (
{
layerId = "0D4C6578-C4F3-4653-B13A-F1323A6E6F4B";
name = Regular;
paths = (
{
closed = 1;
nodes = (
"344 -149 OFFCURVE",
"342.833 -365 OFFCURVE",
"195 -365 CURVE",
"107.445 -365 OFFCURVE",
"58.7482 465 OFFCURVE",
"195 465 CURVE",
"438.885 465 OFFCURVE",
"288.486 35 OFFCURVE",
"109 35 CURVE",
"109 -35 LINE",
"360.012 -35 OFFCURVE",
"559.445 535 OFFCURVE",
"195 535 CURVE",
"-39 535 OFFCURVE",
"17.6309 -435 OFFCURVE",
"195 -435 CURVE",
"415.141 -435 OFFCURVE",
"414 -151 OFFCURVE",
"414 0 CURVE",
"344 0 LINE"
);
}
);
width = 454;
}
);
unicode = E659;
},
{
color = 6;
glyphname = "way-qs";
lastChange = "2013-07-14 23:46:40 +0000";
layers = (
{
layerId = "0D4C6578-C4F3-4653-B13A-F1323A6E6F4B";
name = Regular;
paths = (
{
closed = 1;
nodes = (
"489 486 LINE",
"425 514 LINE",
"25 -386 LINE",
"89 -414 LINE"
);
}
);
width = 514;
}
);
leftMetricsKey = "=ah-qs";
rightMetricsKey = "=ah-qs";
unicode = E661;
},
{
color = 6;
glyphname = "why-qs";
lastChange = "2013-07-14 23:46:40 +0000";
layers = (
{
layerId = "0D4C6578-C4F3-4653-B13A-F1323A6E6F4B";
name = Regular;
paths = (
{
closed = 1;
nodes = (
"136.316 -508 LINE",
"577.983 485.785 LINE",
"514.017 514.215 LINE",
"155.684 -292 LINE",
"109.003 -101 LINE",
"40.9974 -117 LINE"
);
}
);
width = 621;
}
);
unicode = E663;
},
{
color = 6;
glyphname = "ye-qs";
lastChange = "2013-12-08 23:17:01 +0000";
layers = (
{
layerId = "0D4C6578-C4F3-4653-B13A-F1323A6E6F4B";
name = Regular;
paths = (
{
closed = 1;
nodes = (
"234 786 LINE",
"234 839 OFFCURVE",
"248 859 OFFCURVE",
"269 859 CURVE",
"324 859 OFFCURVE",
"411 872 OFFCURVE",
"411 789 CURVE",
"411 715 OFFCURVE",
"330 635 OFFCURVE",
"50 635 CURVE",
"50 565 LINE",
"372 565 OFFCURVE",
"481 672 OFFCURVE",
"481 789 CURVE",
"481 909 OFFCURVE",
"361 929 OFFCURVE",
"269 929 CURVE",
"199 929 OFFCURVE",
"164 869 OFFCURVE",
"164 786 CURVE",
"171 -35 LINE",
"241 -35 LINE"
);
}
);
width = 286;
}
);
leftKerningGroup = yeunconnected;
rightKerningGroup = overhangyskinny;
unicode = E660;
},
{
glyphname = "ye-qs.alt";
lastChange = "2013-06-30 21:52:27 +0000";
layers = (
{
layerId = "0D4C6578-C4F3-4653-B13A-F1323A6E6F4B";
name = Regular;
paths = (
{
closed = 1;
nodes = (
"258.999 786.293 LINE",
"259 839.233 OFFCURVE",
"273.235 859 OFFCURVE",
"294 859 CURVE",
"348.507 859 OFFCURVE",
"436 772 OFFCURVE",
"436 689 CURVE",
"436 615 OFFCURVE",
"355 535 OFFCURVE",
"75 535 CURVE",
"75 465 LINE",
"397 465 OFFCURVE",
"506 572 OFFCURVE",
"506 689 CURVE",
"506 809 OFFCURVE",
"385.543 929 OFFCURVE",
"294 929 CURVE",
"224.381 929 OFFCURVE",
"189 868.957 OFFCURVE",
"189 786 CURVE",
"196 -35 LINE",
"266 -35 LINE"
);
}
);
width = 506;
}
);
},
{
color = 6;
glyphname = "zhivago-qs";
lastChange = "2013-07-14 23:46:40 +0000";
layers = (
{
layerId = "0D4C6578-C4F3-4653-B13A-F1323A6E6F4B";
name = Regular;
paths = (
{
closed = 1;
nodes = (
"100 465 OFFCURVE",
"401 424 OFFCURVE",
"401 175 CURVE",
"401 75 OFFCURVE",
"357 -54 OFFCURVE",
"236 -233 CURVE",
"207 -276 OFFCURVE",
"182 -306 OFFCURVE",
"160 -328 CURVE",
"159 -328 LINE",
"132 -356 OFFCURVE",
"114 -364 OFFCURVE",
"104 -364 CURVE",
"99 -364 OFFCURVE",
"101 -367 OFFCURVE",
"101 -344 CURVE",
"101 -248 OFFCURVE",
"232 -35 OFFCURVE",
"555 -35 CURVE",
"555 35 LINE",
"184 35 OFFCURVE",
"31 -220 OFFCURVE",
"31 -344 CURVE",
"31 -391 OFFCURVE",
"55 -434 OFFCURVE",
"104 -434 CURVE",
"132 -434 OFFCURVE",
"172 -415 OFFCURVE",
"209 -378 CURVE",
"208 -378 LINE",
"234 -354 OFFCURVE",
"263 -318 OFFCURVE",
"294 -273 CURVE",
"421 -86 OFFCURVE",
"471 63 OFFCURVE",
"471 175 CURVE",
"471 488 OFFCURVE",
"106 535 OFFCURVE",
"25 535 CURVE",
"25 465 LINE"
);
}
);
width = 580;
}
);
leftMetricsKey = "=ah-qs";
rightMetricsKey = "=ah-qs";
unicode = E65D;
},
{
color = 6;
glyphname = "zoo-qs";
lastChange = "2013-07-14 23:46:40 +0000";
layers = (
{
layerId = "0D4C6578-C4F3-4653-B13A-F1323A6E6F4B";
name = Regular;
paths = (
{
closed = 1;
nodes = (
"368 -125 OFFCURVE",
"362.258 -365 OFFCURVE",
"246 -365 CURVE",
"145.285 -365 OFFCURVE",
"83.7666 -248 OFFCURVE",
"120.853 -107 CURVE",
"169.172 75.4494 OFFCURVE",
"401 258.345 OFFCURVE",
"401 384 CURVE",
"401 592.6 OFFCURVE",
"111.506 562.223 OFFCURVE",
"60.9254 529.346 CURVE",
"61 464 LINE",
"128.562 489.821 OFFCURVE",
"331 507.42 OFFCURVE",
"331 384 CURVE",
"331 283.552 OFFCURVE",
"110.331 126.675 OFFCURVE",
"53.1678 -89 CURVE",
"6.20278 -268 OFFCURVE",
"90.5581 -435 OFFCURVE",
"246 -435 CURVE",
"435.743 -435 OFFCURVE",
"438 -129 OFFCURVE",
"438 0 CURVE",
"368 0 LINE"
);
}
);
width = 478;
}
);
unicode = E65B;
},
{
glyphname = zero;
lastChange = "2013-06-28 22:44:50 +0000";
layers = (
{
layerId = "0D4C6578-C4F3-4653-B13A-F1323A6E6F4B";
name = Regular;
paths = (
{
closed = 1;
nodes = (
"416.699 915 OFFCURVE",
"540 812.477 OFFCURVE",
"540 450 CURVE",
"540 87.5233 OFFCURVE",
"416.699 -15 OFFCURVE",
"325 -15 CURVE",
"233.301 -15 OFFCURVE",
"110 87.5233 OFFCURVE",
"110 450 CURVE",
"110 812.477 OFFCURVE",
"233.301 915 OFFCURVE",
"325 915 CURVE SMOOTH",
"325 985 LINE SMOOTH",
"194.402 985 OFFCURVE",
"40 859.607 OFFCURVE",
"40 450 CURVE",
"40 40.3929 OFFCURVE",
"194.402 -85 OFFCURVE",
"325 -85 CURVE",
"455.598 -85 OFFCURVE",
"610 40.3929 OFFCURVE",
"610 450 CURVE",
"610 859.607 OFFCURVE",
"455.598 985 OFFCURVE",
"325 985 CURVE",
"325 915 LINE"
);
}
);
width = 650;
}
);
unicode = 0030;
},
{
glyphname = one;
lastChange = "2013-06-30 21:52:42 +0000";
layers = (
{
layerId = "0D4C6578-C4F3-4653-B13A-F1323A6E6F4B";
name = Regular;
paths = (
{
closed = 1;
nodes = (
"328 950 LINE",
"258 950 LINE",
"258 -35 LINE",
"328 -35 LINE"
);
}
);
width = 600;
}
);
unicode = 0031;
},
{
glyphname = two;
lastChange = "2013-06-28 22:03:34 +0000";
layers = (
{
layerId = "0D4C6578-C4F3-4653-B13A-F1323A6E6F4B";
name = Regular;
paths = (
{
closed = 1;
nodes = (
"231 35 LINE",
"10.3657 35 OFFCURVE",
"611.646 453.941 OFFCURVE",
"614.999 831.689 CURVE",
"616.274 987.333 OFFCURVE",
"476.642 1045.95 OFFCURVE",
"224.399 862.295 CURVE",
"265.601 805.705 LINE",
"468.021 953.081 OFFCURVE",
"545.716 919.502 OFFCURVE",
"545 832.287 CURVE",
"542.581 559.582 OFFCURVE",
"-125 -35 OFFCURVE",
"231 -35 CURVE",
"554 -35 LINE",
"554 35 LINE"
);
}
);
width = 800;
}
);
unicode = 0032;
},
{
glyphname = three;
lastChange = "2013-06-28 22:03:34 +0000";
layers = (
{
layerId = "0D4C6578-C4F3-4653-B13A-F1323A6E6F4B";
name = Regular;
paths = (
{
closed = 1;
nodes = (
"307.436 -36 OFFCURVE",
"483 76.9921 OFFCURVE",
"483 193 CURVE",
"483 348.814 OFFCURVE",
"241.436 524 OFFCURVE",
"70 524 CURVE",
"70 454 LINE",
"240.243 454 OFFCURVE",
"485 608.792 OFFCURVE",
"485 758 CURVE",
"485 878.752 OFFCURVE",
"306.886 985 OFFCURVE",
"70 985 CURVE",
"70 915 LINE",
"275.205 915 OFFCURVE",
"415 827.462 OFFCURVE",
"415 758 CURVE",
"415 657.104 OFFCURVE",
"209.836 524 OFFCURVE",
"70 524 CURVE",
"70 454 LINE",
"210.588 454 OFFCURVE",
"413 305.214 OFFCURVE",
"413 193 CURVE",
"413 126.784 OFFCURVE",
"274.654 34.0743 OFFCURVE",
"70.1584 34.9996 CURVE",
"69.8416 -35 LINE"
);
}
);
width = 546;
}
);
unicode = 0033;
},
{
glyphname = four;
lastChange = "2013-06-30 21:52:56 +0000";
layers = (
{
layerId = "0D4C6578-C4F3-4653-B13A-F1323A6E6F4B";
name = Regular;
paths = (
{
closed = 1;
nodes = (
"476.211 568 OFFCURVE",
"294.321 550.831 OFFCURVE",
"266.449 575.984 CURVE",
"236.571 602.468 OFFCURVE",
"248.007 811.8 OFFCURVE",
"248.999 949.748 CURVE",
"179 950.252 LINE",
"178.008 812.228 OFFCURVE",
"162.994 574.145 OFFCURVE",
"219.784 523.808 CURVE",
"272.123 476.573 OFFCURVE",
"477.818 498 OFFCURVE",
"608 498 CURVE",
"608 568 LINE"
);
},
{
closed = 1;
nodes = (
"535 950 LINE",
"465 950 LINE",
"465 -35 LINE",
"535 -35 LINE"
);
}
);
width = 800;
}
);
unicode = 0034;
},
{
glyphname = five;
lastChange = "2013-06-28 22:03:34 +0000";
layers = (
{
layerId = "0D4C6578-C4F3-4653-B13A-F1323A6E6F4B";
name = Regular;
paths = (
{
closed = 1;
nodes = (
"345.557 -33 OFFCURVE",
"526.721 83.7939 OFFCURVE",
"547.821 291.462 CURVE",
"556.69 379.047 OFFCURVE",
"493.531 580.691 OFFCURVE",
"147.827 593.373 CURVE",
"146.177 920.097 LINE",
"472.097 921 LINE",
"471.903 991 LINE",
"75.8233 989.903 LINE",
"78.1795 523.377 LINE",
"424.624 535.527 OFFCURVE",
"485.072 366.606 OFFCURVE",
"478.178 298.526 CURVE",
"461.277 132.186 OFFCURVE",
"316.463 36.8571 OFFCURVE",
"129.652 34.9983 CURVE",
"130.348 -35 LINE"
);
}
);
width = 600;
}
);
unicode = 0035;
},
{
glyphname = six;
lastChange = "2013-06-28 22:03:34 +0000";
layers = (
{
layerId = "0D4C6578-C4F3-4653-B13A-F1323A6E6F4B";
name = Regular;
paths = (
{
closed = 1;
nodes = (
"237 465 OFFCURVE",
"396 465 OFFCURVE",
"396 257 CURVE",
"396 82.928 OFFCURVE",
"354.035 35 OFFCURVE",
"282 35 CURVE",
"162.378 35 OFFCURVE",
"123 240.056 OFFCURVE",
"123 432 CURVE",
"123 648.981 OFFCURVE",
"231.951 870 OFFCURVE",
"425 870 CURVE",
"425 940 LINE",
"180.032 940 OFFCURVE",
"53 673.036 OFFCURVE",
"53 432 CURVE",
"53 225.924 OFFCURVE",
"95.5991 -35 OFFCURVE",
"282 -35 CURVE",
"398.18 -35 OFFCURVE",
"466 44.9686 OFFCURVE",
"466 257 CURVE",
"466 535 OFFCURVE",
"237 535 OFFCURVE",
"111 535 CURVE",
"111 465 LINE"
);
}
);
width = 600;
}
);
unicode = 0036;
},
{
glyphname = seven;
lastChange = "2013-06-28 22:03:34 +0000";
layers = (
{
layerId = "0D4C6578-C4F3-4653-B13A-F1323A6E6F4B";
name = Regular;
paths = (
{
closed = 1;
nodes = (
"563.311 985 LINE",
"124 985 LINE",
"124 915 LINE",
"460.689 915 LINE",
"109.414 18.7722 LINE",
"174.586 -7 LINE"
);
}
);
width = 600;
}
);
unicode = 0037;
},
{
glyphname = eight;
lastChange = "2013-06-28 22:03:34 +0000";
layers = (
{
layerId = "0D4C6578-C4F3-4653-B13A-F1323A6E6F4B";
name = Regular;
paths = (
{
closed = 1;
nodes = (
"409.012 170.452 OFFCURVE",
"397.299 287.031 OFFCURVE",
"301.912 413.116 CURVE",
"176.773 576.299 LINE",
"98.2874 680.95 OFFCURVE",
"90.0741 769.058 OFFCURVE",
"147.789 862.626 CURVE",
"189.55 930.962 OFFCURVE",
"235.221 930.937 OFFCURVE",
"275.988 862.993 CURVE",
"275.646 863.575 LINE",
"330.066 768.779 OFFCURVE",
"321.76 682.759 OFFCURVE",
"244.768 577.687 CURVE",
"122.857 412.808 LINE",
"28.709 286.913 OFFCURVE",
"16.9141 170.156 OFFCURVE",
"90.163 50.7037 CURVE",
"158.411 -62 OFFCURVE",
"268.363 -62 OFFCURVE",
"337.808 50.6566 CURVE",
"278.192 87.3434 LINE",
"235.538 18.0302 OFFCURVE",
"191.687 18.0541 OFFCURVE",
"149.954 87.1041 CURVE",
"93.0698 179.87 OFFCURVE",
"101.275 267.065 OFFCURVE",
"179.029 371.039 CURVE",
"301.143 536.192 LINE",
"394.256 663.263 OFFCURVE",
"405.95 777.194 OFFCURVE",
"336.354 898.425 CURVE",
"336.012 899.007 LINE",
"268.68 1011.23 OFFCURVE",
"156.55 1011.2 OFFCURVE",
"88.1351 899.251 CURVE",
"13.91 778.917 OFFCURVE",
"25.6966 661.071 OFFCURVE",
"121 534 CURVE",
"246.227 370.701 LINE",
"324.718 266.947 OFFCURVE",
"333.004 179.574 OFFCURVE",
"277.913 86.882 CURVE",
"338.087 51.118 LINE"
);
}
);
width = 423;
}
);
unicode = 0038;
},
{
glyphname = nine;
lastChange = "2013-06-30 21:53:38 +0000";
layers = (
{
layerId = "0D4C6578-C4F3-4653-B13A-F1323A6E6F4B";
name = Regular;
paths = (
{
closed = 1;
nodes = (
"-318 890.468 OFFCURVE",
"202.21 420.349 OFFCURVE",
"427.319 593.242 CURVE",
"384.681 648.758 LINE",
"220.014 522.287 OFFCURVE",
"-140 843.259 OFFCURVE",
"407.564 915.299 CURVE",
"398.436 984.701 LINE"
);
},
{
closed = 1;
nodes = (
"438 950 LINE",
"368 950 LINE",
"368 -35 LINE",
"438 -35 LINE"
);
}
);
width = 481;
}
);
unicode = 0039;
},
{
glyphname = asterisk;
lastChange = "2013-06-28 22:05:00 +0000";
layers = (
{
layerId = "0D4C6578-C4F3-4653-B13A-F1323A6E6F4B";
name = Regular;
paths = (
{
closed = 1;
nodes = (
"358 862 LINE",
"440 956 LINE",
"402 988 LINE",
"304.527 876.754 LINE",
"204 992 LINE",
"166 960 LINE",
"252 862 LINE",
"155 862 LINE",
"150 861 LINE",
"150 812 LINE",
"250 812 LINE",
"169 718 LINE",
"207 686 LINE",
"305.029 798.933 LINE",
"406 683 LINE",
"444 715 LINE",
"359 812 LINE",
"460 812 LINE",
"460 862 LINE"
);
}
);
width = 600;
}
);
unicode = 002A;
},
{
glyphname = backslash;
lastChange = "2013-06-28 22:03:34 +0000";
layers = (
{
layerId = "0D4C6578-C4F3-4653-B13A-F1323A6E6F4B";
name = Regular;
paths = (
{
closed = 1;
nodes = (
"542.039 -462 LINE",
"607.961 -438 LINE",
"107.961 961.772 LINE",
"42.039 938.228 LINE"
);
}
);
width = 650;
}
);
unicode = 005C;
},
{
glyphname = periodcentered;
lastChange = "2013-06-28 22:05:00 +0000";
layers = (
{
layerId = "0D4C6578-C4F3-4653-B13A-F1323A6E6F4B";
name = Regular;
paths = (
{
closed = 1;
nodes = (
"153 281 OFFCURVE",
"175 303 OFFCURVE",
"175 331 CURVE SMOOTH",
"175 359 OFFCURVE",
"153 381 OFFCURVE",
"125 381 CURVE SMOOTH",
"97 381 OFFCURVE",
"75 359 OFFCURVE",
"75 331 CURVE SMOOTH",
"75 303 OFFCURVE",
"97 281 OFFCURVE",
"125 281 CURVE SMOOTH"
);
}
);
width = 250;
}
);
unicode = 00B7;
},
{
glyphname = bullet;
lastChange = "2013-06-28 22:05:00 +0000";
layers = (
{
layerId = "0D4C6578-C4F3-4653-B13A-F1323A6E6F4B";
name = Regular;
paths = (
{
closed = 1;
nodes = (
"348 124 OFFCURVE",
"427 203 OFFCURVE",
"427 300 CURVE SMOOTH",
"427 397 OFFCURVE",
"348 476 OFFCURVE",
"251 476 CURVE SMOOTH",
"154 476 OFFCURVE",
"75 397 OFFCURVE",
"75 300 CURVE SMOOTH",
"75 203 OFFCURVE",
"154 124 OFFCURVE",
"251 124 CURVE SMOOTH"
);
}
);
width = 502;
}
);
unicode = 2022;
},
{
glyphname = colon;
lastChange = "2013-06-28 22:05:00 +0000";
layers = (
{
layerId = "0D4C6578-C4F3-4653-B13A-F1323A6E6F4B";
name = Regular;
paths = (
{
closed = 1;
nodes = (
"153 450 OFFCURVE",
"175 472 OFFCURVE",
"175 500 CURVE SMOOTH",
"175 528 OFFCURVE",
"153 550 OFFCURVE",
"125 550 CURVE SMOOTH",
"97 550 OFFCURVE",
"75 528 OFFCURVE",
"75 500 CURVE SMOOTH",
"75 472 OFFCURVE",
"97 450 OFFCURVE",
"125 450 CURVE SMOOTH"
);
},
{
closed = 1;
nodes = (
"153 50 OFFCURVE",
"175 72 OFFCURVE",
"175 100 CURVE SMOOTH",
"175 128 OFFCURVE",
"153 150 OFFCURVE",
"125 150 CURVE SMOOTH",
"97 150 OFFCURVE",
"75 128 OFFCURVE",
"75 100 CURVE SMOOTH",
"75 72 OFFCURVE",
"97 50 OFFCURVE",
"125 50 CURVE SMOOTH"
);
}
);
width = 250;
}
);
unicode = 003A;
},
{
glyphname = comma;
lastChange = "2013-06-28 22:05:00 +0000";
layers = (
{
layerId = "0D4C6578-C4F3-4653-B13A-F1323A6E6F4B";
name = Regular;
paths = (
{
closed = 1;
nodes = (
"100 -177 OFFCURVE",
"172 -32 OFFCURVE",
"175 -5 CURVE SMOOTH",
"177 23 OFFCURVE",
"158 47 OFFCURVE",
"129 50 CURVE SMOOTH",
"102 52 OFFCURVE",
"81 33 OFFCURVE",
"76 5 CURVE SMOOTH",
"71 -23 OFFCURVE",
"46 -171 OFFCURVE",
"72 -174 CURVE SMOOTH"
);
}
);
width = 600;
}
);
unicode = 002C;
},
{
glyphname = ellipsis;
lastChange = "2013-06-28 22:05:00 +0000";
layers = (
{
layerId = "0D4C6578-C4F3-4653-B13A-F1323A6E6F4B";
name = Regular;
paths = (
{
closed = 1;
nodes = (
"553 -50 OFFCURVE",
"575 -28 OFFCURVE",
"575 0 CURVE SMOOTH",
"575 28 OFFCURVE",
"553 50 OFFCURVE",
"525 50 CURVE SMOOTH",
"497 50 OFFCURVE",
"475 28 OFFCURVE",
"475 0 CURVE SMOOTH",
"475 -28 OFFCURVE",
"497 -50 OFFCURVE",
"525 -50 CURVE SMOOTH"
);
},
{
closed = 1;
nodes = (
"353 -50 OFFCURVE",
"375 -28 OFFCURVE",
"375 0 CURVE SMOOTH",
"375 28 OFFCURVE",
"353 50 OFFCURVE",
"325 50 CURVE SMOOTH",
"297 50 OFFCURVE",
"275 28 OFFCURVE",
"275 0 CURVE SMOOTH",
"275 -28 OFFCURVE",
"297 -50 OFFCURVE",
"325 -50 CURVE SMOOTH"
);
},
{
closed = 1;
nodes = (
"153 -50 OFFCURVE",
"175 -28 OFFCURVE",
"175 0 CURVE SMOOTH",
"175 28 OFFCURVE",
"153 50 OFFCURVE",
"125 50 CURVE SMOOTH",
"97 50 OFFCURVE",
"75 28 OFFCURVE",
"75 0 CURVE SMOOTH",
"75 -28 OFFCURVE",
"97 -50 OFFCURVE",
"125 -50 CURVE SMOOTH"
);
}
);
width = 600;
}
);
unicode = 2026;
},
{
glyphname = exclam;
lastChange = "2013-06-28 22:07:41 +0000";
layers = (
{
layerId = "0D4C6578-C4F3-4653-B13A-F1323A6E6F4B";
name = Regular;
paths = (
{
closed = 1;
nodes = (
"153 -450 OFFCURVE",
"175 -428 OFFCURVE",
"175 -400 CURVE SMOOTH",
"175 -372 OFFCURVE",
"153 -350 OFFCURVE",
"125 -350 CURVE SMOOTH",
"97 -350 OFFCURVE",
"75 -372 OFFCURVE",
"75 -400 CURVE SMOOTH",
"75 -428 OFFCURVE",
"97 -450 OFFCURVE",
"125 -450 CURVE SMOOTH"
);
},
{
closed = 1;
nodes = (
"170 954 LINE",
"80 954 LINE",
"80 -138 LINE",
"170 -138 LINE"
);
}
);
width = 250;
}
);
unicode = 0021;
},
{
glyphname = numbersign;
lastChange = "2013-06-28 22:07:21 +0000";
layers = (
{
layerId = "0D4C6578-C4F3-4653-B13A-F1323A6E6F4B";
name = Regular;
paths = (
{
closed = 1;
nodes = (
"550 745 LINE",
"462 765 LINE",
"268 -161 LINE",
"356 -181 LINE"
);
},
{
closed = 1;
nodes = (
"350 745 LINE",
"262 765 LINE",
"68 -161 LINE",
"156 -181 LINE"
);
},
{
closed = 1;
nodes = (
"-13 176 LINE",
"-13 86 LINE",
"590 86 LINE",
"590 176 LINE"
);
},
{
closed = 1;
nodes = (
"7 476 LINE",
"7 386 LINE",
"610 386 LINE",
"610 476 LINE"
);
}
);
width = 600;
}
);
unicode = 0023;
},
{
glyphname = period;
lastChange = "2013-06-28 22:05:00 +0000";
layers = (
{
layerId = "0D4C6578-C4F3-4653-B13A-F1323A6E6F4B";
name = Regular;
paths = (
{
closed = 1;
nodes = (
"168 -55 OFFCURVE",
"193 -31 OFFCURVE",
"193 0 CURVE SMOOTH",
"193 31 OFFCURVE",
"168 55 OFFCURVE",
"138 55 CURVE SMOOTH",
"107 55 OFFCURVE",
"83 31 OFFCURVE",
"83 0 CURVE SMOOTH",
"83 -31 OFFCURVE",
"107 -55 OFFCURVE",
"138 -55 CURVE SMOOTH"
);
}
);
width = 275;
}
);
unicode = 002E;
},
{
glyphname = question;
lastChange = "2013-06-28 22:43:04 +0000";
layers = (
{
layerId = "0D4C6578-C4F3-4653-B13A-F1323A6E6F4B";
name = Regular;
paths = (
{
closed = 1;
nodes = (
"353 -450 OFFCURVE",
"375 -428 OFFCURVE",
"375 -400 CURVE SMOOTH",
"375 -372 OFFCURVE",
"353 -350 OFFCURVE",
"325 -350 CURVE SMOOTH",
"297 -350 OFFCURVE",
"275 -372 OFFCURVE",
"275 -400 CURVE SMOOTH",
"275 -428 OFFCURVE",
"297 -450 OFFCURVE",
"325 -450 CURVE SMOOTH"
);
},
{
closed = 1;
nodes = (
"341.656 58.7237 OFFCURVE",
"331 168.775 OFFCURVE",
"331 239 CURVE",
"331 256 OFFCURVE",
"331 269 OFFCURVE",
"331 280 CURVE",
"331 355.106 OFFCURVE",
"389.645 376.443 OFFCURVE",
"517.443 568.04 CURVE",
"549.251 615.753 OFFCURVE",
"570 686.541 OFFCURVE",
"570 751 CURVE",
"570 869.54 OFFCURVE",
"504.836 995 OFFCURVE",
"331 995 CURVE",
"213.768 995 OFFCURVE",
"184.674 974.047 OFFCURVE",
"73.2711 818.201 CURVE",
"146.539 765.937 LINE",
"244.414 903.021 OFFCURVE",
"250.796 905 OFFCURVE",
"331 905 CURVE",
"439.146 905 OFFCURVE",
"480 834.787 OFFCURVE",
"480 751 CURVE",
"480 701.532 OFFCURVE",
"465.588 652.508 OFFCURVE",
"442.557 617.961 CURVE",
"344.778 471.29 OFFCURVE",
"241 408.152 OFFCURVE",
"241 239 CURVE",
"241 164.449 OFFCURVE",
"251.976 51.0595 OFFCURVE",
"266.749 -145 CURVE",
"356.498 -137 LINE"
);
}
);
width = 600;
}
);
unicode = 003F;
},
{
glyphname = quotesingle;
lastChange = "2013-06-28 22:05:00 +0000";
layers = (
{
layerId = "0D4C6578-C4F3-4653-B13A-F1323A6E6F4B";
name = Regular;
paths = (
{
closed = 1;
nodes = (
"141 620 OFFCURVE",
"173 872 OFFCURVE",
"174 899 CURVE SMOOTH",
"173 927 OFFCURVE",
"153 949 OFFCURVE",
"123 949 CURVE SMOOTH",
"96 949 OFFCURVE",
"77 927 OFFCURVE",
"75 899 CURVE SMOOTH",
"72 871 OFFCURVE",
"93 620 OFFCURVE",
"117 620 CURVE SMOOTH"
);
}
);
width = 249;
}
);
unicode = 0027;
},
{
glyphname = semicolon;
lastChange = "2013-06-28 22:05:00 +0000";
layers = (
{
layerId = "0D4C6578-C4F3-4653-B13A-F1323A6E6F4B";
name = Regular;
paths = (
{
closed = 1;
nodes = (
"100 -82 OFFCURVE",
"172 63 OFFCURVE",
"175 90 CURVE SMOOTH",
"177 118 OFFCURVE",
"158 142 OFFCURVE",
"129 145 CURVE SMOOTH",
"102 147 OFFCURVE",
"81 128 OFFCURVE",
"76 100 CURVE SMOOTH",
"71 72 OFFCURVE",
"46 -76 OFFCURVE",
"72 -79 CURVE SMOOTH"
);
},
{
closed = 1;
nodes = (
"153 450 OFFCURVE",
"175 472 OFFCURVE",
"175 500 CURVE SMOOTH",
"175 528 OFFCURVE",
"153 550 OFFCURVE",
"125 550 CURVE SMOOTH",
"97 550 OFFCURVE",
"75 528 OFFCURVE",
"75 500 CURVE SMOOTH",
"75 472 OFFCURVE",
"97 450 OFFCURVE",
"125 450 CURVE SMOOTH"
);
}
);
width = 250;
}
);
unicode = 003B;
},
{
glyphname = slash;
lastChange = "2013-06-28 22:03:34 +0000";
layers = (
{
layerId = "0D4C6578-C4F3-4653-B13A-F1323A6E6F4B";
name = Regular;
paths = (
{
closed = 1;
nodes = (
"42.039 -438 LINE",
"107.961 -462 LINE",
"607.961 938.228 LINE",
"542.039 961.772 LINE"
);
}
);
width = 650;
}
);
unicode = 002F;
},
{
glyphname = underscore;
lastChange = "2013-06-28 22:03:34 +0000";
layers = (
{
layerId = "0D4C6578-C4F3-4653-B13A-F1323A6E6F4B";
name = Regular;
paths = (
{
closed = 1;
nodes = (
"0 -415 LINE",
"0 -485 LINE",
"600 -485 LINE",
"600 -415 LINE"
);
}
);
width = 600;
}
);
unicode = 005F;
},
{
glyphname = braceleft;
lastChange = "2013-06-28 22:03:34 +0000";
layers = (
{
layerId = "0D4C6578-C4F3-4653-B13A-F1323A6E6F4B";
name = Regular;
paths = (
{
closed = 1;
nodes = (
"73.3972 -415 OFFCURVE",
"640.916 267 OFFCURVE",
"75 267 CURVE",
"75 197 LINE",
"631.642 197 OFFCURVE",
"119.328 914.508 OFFCURVE",
"456.467 919.003 CURVE",
"455.533 988.997 LINE",
"-55 982.187 OFFCURVE",
"592.875 267 OFFCURVE",
"75 267 CURVE",
"75 197 LINE",
"585.77 197 OFFCURVE",
"-102 -485 OFFCURVE",
"411 -485 CURVE",
"411 -415 LINE"
);
}
);
width = 531;
}
);
unicode = 007B;
},
{
glyphname = braceright;
lastChange = "2013-06-28 22:03:34 +0000";
layers = (
{
layerId = "0D4C6578-C4F3-4653-B13A-F1323A6E6F4B";
name = Regular;
paths = (
{
closed = 1;
nodes = (
"632.877 -485 OFFCURVE",
"-55 197 OFFCURVE",
"456 197 CURVE",
"456 267 LINE",
"-62 267 OFFCURVE",
"586.2 982.187 OFFCURVE",
"75.4666 988.997 CURVE",
"74.5334 919.003 LINE",
"411.672 914.508 OFFCURVE",
"-101 197 OFFCURVE",
"456 197 CURVE",
"456 267 LINE",
"-110 267 OFFCURVE",
"457.603 -415 OFFCURVE",
"120 -415 CURVE",
"120 -485 LINE"
);
}
);
width = 531;
}
);
unicode = 007D;
},
{
glyphname = bracketleft;
lastChange = "2013-06-28 22:03:34 +0000";
layers = (
{
layerId = "0D4C6578-C4F3-4653-B13A-F1323A6E6F4B";
name = Regular;
paths = (
{
closed = 1;
nodes = (
"110 -415 LINE",
"110 915 LINE",
"325 915 LINE",
"325 985 LINE",
"40 985 LINE",
"40 -485 LINE",
"325 -485 LINE",
"325 -415 LINE"
);
}
);
width = 400;
}
);
unicode = 005B;
},
{
glyphname = bracketright;
lastChange = "2013-06-28 22:03:34 +0000";
layers = (
{
layerId = "0D4C6578-C4F3-4653-B13A-F1323A6E6F4B";
name = Regular;
paths = (
{
closed = 1;
nodes = (
"360 -485 LINE",
"360 985 LINE",
"75 985 LINE",
"75 915 LINE",
"290 915 LINE",
"290 -415 LINE",
"75 -415 LINE",
"75 -485 LINE"
);
}
);
width = 400;
}
);
unicode = 005D;
},
{
glyphname = parenleft;
lastChange = "2013-06-28 22:03:34 +0000";
layers = (
{
layerId = "0D4C6578-C4F3-4653-B13A-F1323A6E6F4B";
name = Regular;
paths = (
{
closed = 1;
nodes = (
"37.8284 -138 OFFCURVE",
"37.8284 638.331 OFFCURVE",
"324.749 925.251 CURVE",
"275.251 974.749 LINE",
"-38 661.663 OFFCURVE",
"-38 -162 OFFCURVE",
"275.251 -475 CURVE",
"324.749 -425 LINE"
);
}
);
width = 350;
}
);
unicode = 0028;
},
{
glyphname = parenright;
lastChange = "2013-06-28 22:03:34 +0000";
layers = (
{
layerId = "0D4C6578-C4F3-4653-B13A-F1323A6E6F4B";
name = Regular;
paths = (
{
closed = 1;
nodes = (
"437.835 -162 OFFCURVE",
"437.835 661.663 OFFCURVE",
"124.749 974.749 CURVE",
"75.2513 925.251 LINE",
"362.172 638.331 OFFCURVE",
"362.172 -138 OFFCURVE",
"75.2513 -425 CURVE",
"124.749 -475 LINE"
);
}
);
width = 350;
}
);
unicode = 0029;
},
{
glyphname = emdash;
lastChange = "2013-06-28 22:03:34 +0000";
layers = (
{
layerId = "0D4C6578-C4F3-4653-B13A-F1323A6E6F4B";
name = Regular;
paths = (
{
closed = 1;
nodes = (
"75 326 LINE",
"75 256 LINE",
"975 256 LINE",
"975 326 LINE"
);
}
);
width = 1050;
}
);
unicode = 2014;
},
{
glyphname = endash;
lastChange = "2013-06-28 22:03:34 +0000";
layers = (
{
layerId = "0D4C6578-C4F3-4653-B13A-F1323A6E6F4B";
name = Regular;
paths = (
{
closed = 1;
nodes = (
"75 326 LINE",
"75 256 LINE",
"575 256 LINE",
"575 326 LINE"
);
}
);
width = 650;
}
);
unicode = 2013;
},
{
glyphname = hyphen;
lastChange = "2013-06-29 16:22:05 +0000";
layers = (
{
layerId = "0D4C6578-C4F3-4653-B13A-F1323A6E6F4B";
name = Regular;
paths = (
{
closed = 1;
nodes = (
"75 326 LINE",
"75 256 LINE",
"375 256 LINE",
"375 326 LINE"
);
}
);
width = 450;
}
);
unicode = 002D;
},
{
glyphname = quoteleft;
lastChange = "2013-11-12 01:32:29 +0000";
layers = (
{
layerId = "0D4C6578-C4F3-4653-B13A-F1323A6E6F4B";
name = Regular;
paths = (
{
closed = 1;
nodes = (
"94 853 OFFCURVE",
"112 871 OFFCURVE",
"153 891 CURVE SMOOTH",
"196 913 OFFCURVE",
"171 979 OFFCURVE",
"127 956 CURVE SMOOTH",
"55 920 OFFCURVE",
"42 913 OFFCURVE",
"6 817 CURVE SMOOTH",
"-19 751 OFFCURVE",
"45 728 OFFCURVE",
"71 794 CURVE SMOOTH"
);
}
);
width = 175.29;
}
);
unicode = 2018;
},
{
glyphname = quoteright;
lastChange = "2013-11-12 01:32:55 +0000";
layers = (
{
layerId = "0D4C6578-C4F3-4653-B13A-F1323A6E6F4B";
name = Regular;
paths = (
{
closed = 1;
nodes = (
"81 853 OFFCURVE",
"63 871 OFFCURVE",
"22 891 CURVE SMOOTH",
"-21 913 OFFCURVE",
"4 979 OFFCURVE",
"48 956 CURVE SMOOTH",
"120 920 OFFCURVE",
"133 913 OFFCURVE",
"169 817 CURVE SMOOTH",
"194 751 OFFCURVE",
"130 728 OFFCURVE",
"104 794 CURVE SMOOTH"
);
}
);
width = 174.686;
}
);
unicode = 2019;
},
{
glyphname = "leftangledparenthesis-qs";
lastChange = "2013-06-28 22:03:34 +0000";
layers = (
{
layerId = "0D4C6578-C4F3-4653-B13A-F1323A6E6F4B";
name = Regular;
paths = (
{
closed = 1;
nodes = (
"148.014 -415 LINE",
"583.321 939.29 LINE",
"516.679 960.71 LINE",
"51.9864 -485 LINE",
"550 -485 LINE",
"550 -415 LINE"
);
}
);
width = 600;
}
);
unicode = E66E;
},
{
glyphname = "rightangledparenthesis-qs";
lastChange = "2013-06-28 22:03:34 +0000";
layers = (
{
layerId = "0D4C6578-C4F3-4653-B13A-F1323A6E6F4B";
name = Regular;
paths = (
{
closed = 1;
nodes = (
"451.986 915 LINE",
"16.679 -439 LINE",
"83.321 -461 LINE",
"548.014 985 LINE",
"50 985 LINE",
"50 915 LINE"
);
}
);
width = 600;
}
);
unicode = E66F;
},
{
glyphname = percent;
lastChange = "2013-06-28 22:05:10 +0000";
layers = (
{
layerId = "0D4C6578-C4F3-4653-B13A-F1323A6E6F4B";
name = Regular;
paths = (
{
closed = 1;
nodes = (
"667 -78 OFFCURVE",
"749 3 OFFCURVE",
"749 106 CURVE",
"749 209 OFFCURVE",
"667 290 OFFCURVE",
"565 290 CURVE",
"462 290 OFFCURVE",
"381 209 OFFCURVE",
"381 106 CURVE",
"381 3 OFFCURVE",
"462 -78 OFFCURVE",
"565 -78 CURVE"
);
},
{
closed = 1;
nodes = (
"507 2 OFFCURVE",
"461 48 OFFCURVE",
"461 106 CURVE",
"461 164 OFFCURVE",
"507 210 OFFCURVE",
"565 210 CURVE",
"622 210 OFFCURVE",
"669 164 OFFCURVE",
"669 106 CURVE",
"669 48 OFFCURVE",
"622 2 OFFCURVE",
"565 2 CURVE"
);
},
{
closed = 1;
nodes = (
"367 622 OFFCURVE",
"449 704 OFFCURVE",
"449 806 CURVE",
"449 908 OFFCURVE",
"367 990 OFFCURVE",
"265 990 CURVE",
"162 990 OFFCURVE",
"81 908 OFFCURVE",
"81 806 CURVE",
"81 704 OFFCURVE",
"162 622 OFFCURVE",
"265 622 CURVE"
);
},
{
closed = 1;
nodes = (
"207 702 OFFCURVE",
"161 749 OFFCURVE",
"161 806 CURVE",
"161 863 OFFCURVE",
"207 910 OFFCURVE",
"265 910 CURVE",
"322 910 OFFCURVE",
"369 863 OFFCURVE",
"369 806 CURVE",
"369 749 OFFCURVE",
"322 702 OFFCURVE",
"265 702 CURVE"
);
},
{
closed = 1;
nodes = (
"718 879 LINE",
"651 923 LINE",
"75 35 LINE",
"142 -9 LINE"
);
}
);
width = 824;
}
);
unicode = 0025;
},
{
glyphname = degree;
lastChange = "2013-06-28 22:57:37 +0000";
layers = (
{
layerId = "0D4C6578-C4F3-4653-B13A-F1323A6E6F4B";
name = Regular;
paths = (
{
closed = 1;
nodes = (
"354 625 OFFCURVE",
"435 706 OFFCURVE",
"435 805 CURVE",
"435 904 OFFCURVE",
"354 985 OFFCURVE",
"255 985 CURVE",
"156 985 OFFCURVE",
"75 904 OFFCURVE",
"75 805 CURVE",
"75 706 OFFCURVE",
"156 625 OFFCURVE",
"255 625 CURVE"
);
},
{
closed = 1;
nodes = (
"193 695 OFFCURVE",
"145 743 OFFCURVE",
"145 805 CURVE",
"145 867 OFFCURVE",
"193 915 OFFCURVE",
"255 915 CURVE",
"317 915 OFFCURVE",
"365 867 OFFCURVE",
"365 805 CURVE",
"365 743 OFFCURVE",
"317 695 OFFCURVE",
"255 695 CURVE"
);
}
);
width = 510;
}
);
unicode = 00B0;
},
{
glyphname = minute;
lastChange = "2013-06-28 22:00:31 +0000";
layers = (
{
layerId = "0D4C6578-C4F3-4653-B13A-F1323A6E6F4B";
name = Regular;
paths = (
{
closed = 1;
nodes = (
"102 720 OFFCURVE",
"244 901 OFFCURVE",
"257 925 CURVE SMOOTH",
"269 950 OFFCURVE",
"261 979 OFFCURVE",
"235 993 CURVE SMOOTH",
"211 1005 OFFCURVE",
"184 995 OFFCURVE",
"169 971 CURVE SMOOTH",
"154 947 OFFCURVE",
"55 745 OFFCURVE",
"78 733 CURVE SMOOTH"
);
}
);
width = 337;
}
);
unicode = 2032;
},
{
glyphname = second;
lastChange = "2013-07-03 22:49:18 +0000";
layers = (
{
background = {
paths = (
{
closed = 1;
nodes = (
"272 720 OFFCURVE",
"414 901 OFFCURVE",
"427 925 CURVE SMOOTH",
"439 950 OFFCURVE",
"431 979 OFFCURVE",
"405 993 CURVE SMOOTH",
"381 1005 OFFCURVE",
"354 995 OFFCURVE",
"339 971 CURVE SMOOTH",
"324 947 OFFCURVE",
"225 745 OFFCURVE",
"248 733 CURVE SMOOTH"
);
}
